<svg width="26" height="26" viewBox="0 0 26 26" fill="none" xmlns="http://www.w3.org/2000/svg">
<g id="Icon/Font Awesome Free/Solid/A/arrow-right">
<path id="Vector" d="M11.3789 3.85556L12.4524 2.78202C12.907 2.32745 13.642 2.32745 14.0918 2.78202L23.4925 12.1779C23.9471 12.6325 23.9471 13.3675 23.4925 13.8172L14.0918 23.218C13.6372 23.6725 12.9022 23.6725 12.4524 23.218L11.3789 22.1444C10.9195 21.685 10.9292 20.9355 11.3982 20.4858L17.2253 14.9343H3.32733C2.68418 14.9343 2.16675 14.4169 2.16675 13.7737V12.2263C2.16675 11.5831 2.68418 11.0657 3.32733 11.0657H17.2253L11.3982 5.51422C10.9243 5.0645 10.9147 4.31495 11.3789 3.85556Z" fill="white"/>
</g>
</svg>
